#!OML:ASF X:\für Bonn\!DataBase\2005_08_10_Bjorn_Final\c3d\bjorn.ASF
:FULLY-SPECIFIED
:DEGREES
218
root -0.0644322 19.2862 -0.680507 -179.144 28.1897 183.47
lowerback -10.3063 3.9516 1.74941
upperback 4.60278 5.51917 -3.1695
thorax 11.2809 2.96682 -3.29593
lowerneck -3.08467 1.57227 9.09173
upperneck 19.5571 2.8728 -2.33853
head 6.61811 2.29769 -2.02774
rclavicle -3.15074e-014 -2.8625e-014
rhumerus -277.863 14.698 233.829
rradius 9.87573
rwrist 72.1106
rhand -22.8758 11.5149
rfingers 7.12502
rthumb 3.56308 -18.4351
lclavicle -3.15074e-014 -2.8625e-014
lhumerus 65.8755 -15.2041 91.9131
lradius 41.9737
lwrist 45.9276
lhand -51.5091 -1.34429
lfingers 7.12502
lthumb -24.0369 27.1705
rfemur 1.19855 5.56665 4.11085
rtibia 34.1907
rfoot 10.8283 16.9259
rtoes -20.258
lfemur -9.77308 5.41496 -12.4771
ltibia 28.3539
lfoot -11.4111 -11.9143
ltoes -3.69417
219
root -0.0715049 19.2894 -0.674448 -179.107 28.1119 183.465
lowerback -10.3129 3.91125 1.74057
upperback 4.58445 5.46282 -3.16045
thorax 11.2572 2.93775 -3.29323
lowerneck -3.06757 1.5268 9.10042
upperneck 19.8743 2.87002 -2.43541
head 6.71719 2.31146 -2.05964
rclavicle -2.127e-014 6.36111e-014
rhumerus -278.049 14.6673 233.798
rradius 9.85721
rwrist 72.3288
rhand -23.0548 11.48
rfingers 7.12502
rthumb 3.39022 -18.4728
lclavicle -2.127e-014 6.36111e-014
lhumerus 65.7998 -15.1955 91.9873
lradius 42.0167
lwrist 45.9613
lhand -51.4737 -1.35537
lfingers 7.12502
lthumb -24.0029 27.1639
rfemur 1.09681 5.59826 4.11277
rtibia 34.2586
rfoot 11.0557 16.6438
rtoes -19.5432
lfemur -9.86734 5.86938 -12.449
ltibia 28.3364
lfoot -11.2572 -12.4695
ltoes -3.35818
220
root -0.0784989 19.2921 -0.667727 -179.084 28.0402 183.445
lowerback -10.3192 3.88049 1.75995
upperback 4.5826 5.42317 -3.19366
thorax 11.2613 2.92237 -3.34818
lowerneck -3.11586 1.48271 9.1086
upperneck 20.1982 2.84572 -2.45097
head 6.8285 2.31987 -2.066
rclavicle 5.22804e-014 8.42847e-014
rhumerus -278.165 14.6477 233.73
rradius 9.82537
rwrist 72.5321
rhand -23.2591 11.4563
rfingers 7.12502
rthumb 3.1929 -18.4995
lclavicle 5.22804e-014 8.42847e-014
lhumerus 65.7909 -15.2268 91.9931
lradius 42.0209
lwrist 45.9863
lhand -51.3761 -1.53129
lfingers 7.12502
lthumb -23.9093 27.0003
rfemur 0.999099 5.62628 4.09501
rtibia 34.322
rfoot 11.2284 16.5575
rtoes -19.3126
lfemur -9.95341 6.33617 -12.4334
ltibia 28.3185
lfoot -11.1208 -13.0347
ltoes -3.08485
221
root -0.0843823 19.2937 -0.659692 -179.073 27.9456 183.422
lowerback -10.3306 3.83578 1.75018
upperback 4.59539 5.36712 -3.20642
thorax 11.2782 2.89618 -3.36741
lowerneck -3.13058 1.44556 9.11375
upperneck 20.4585 2.83467 -2.4977
head 6.91461 2.32864 -2.0817
rclavicle -8.60738e-014 9.54166e-015
rhumerus -278.288 14.6506 233.685
rradius 9.82736
rwrist 72.6634
rhand -23.4387 11.4576
rfingers 7.12502
rthumb 3.01939 -18.5007
lclavicle -8.60738e-014 9.54166e-015
lhumerus 65.7759 -15.2382 92.0479
lradius 42.0296
lwrist 45.9722
lhand -51.296 -1.72016
lfingers 7.12502
lthumb -23.8325 26.8214
rfemur 0.927797 5.64053 4.07783
rtibia 34.3726
rfoot 11.2818 16.6621
rtoes -19.7449
lfemur -10.0399 6.82141 -12.4121
ltibia 28.3089
lfoot -10.9342 -13.6453
ltoes -2.75832
222
root -0.0895812 19.2959 -0.651734 -179.065 27.8684 183.406
lowerback -10.3224 3.7917 1.73795
upperback 4.60184 5.31025 -3.20847
thorax 11.2745 2.86847 -3.37512
lowerneck -3.14423 1.41085 9.07399
upperneck 20.727 2.83042 -2.52979
head 7.00281 2.33906 -2.08471
rclavicle 7.2954e-014 -9.54166e-015
rhumerus -278.404 14.6664 233.641
rradius 9.80872
rwrist 72.7611
rhand -23.6286 11.4641
rfingers 7.12502
rthumb 2.83606 -18.4968
lclavicle 7.2954e-014 -9.54166e-015
lhumerus 65.7626 -15.2263 92.1057
lradius 42.0402
lwrist 46.0105
lhand -51.1994 -1.89061
lfingers 7.12502
lthumb -23.7399 26.6631
rfemur 0.860487 5.68254 4.06638
rtibia 34.4135
rfoot 11.276 16.8897
rtoes -20.4995
lfemur -10.1145 7.17617 -12.3945
ltibia 28.3021
lfoot -10.8117 -14.1202
ltoes -2.58451
223
root -0.0948619 19.2978 -0.642988 -179.066 27.7783 183.391
lowerback -10.3087 3.74416 1.74537
upperback 4.6216 5.24804 -3.21832
thorax 11.2849 2.84075 -3.40342
lowerneck -3.16978 1.38215 9.03115
upperneck 20.9662 2.82714 -2.55076
head 7.08385 2.34808 -2.08354
rclavicle 5.28767e-014 -1.74931e-014
rhumerus -278.508 14.7243 233.59
rradius 9.80822
rwrist 72.7857
rhand -23.7818 11.4807
rfingers 7.12502
rthumb 2.6881 -18.4821
lclavicle 5.28767e-014 -1.74931e-014
lhumerus 65.7596 -15.2169 92.0774
lradius 42.0919
lwrist 46.0851
lhand -51.167 -1.95581
lfingers 7.12502
lthumb -23.7088 26.6019
rfemur 0.806183 5.72546 4.05494
rtibia 34.4484
rfoot 11.3241 17.0499
rtoes -20.8612
lfemur -10.1817 7.47103 -12.3837
ltibia 28.3011
lfoot -10.7261 -14.5174
ltoes -2.53528
224
root -0.0997059 19.2986 -0.632934 -179.077 27.6834 183.389
lowerback -10.2705 3.69685 1.75836
upperback 4.64459 5.18537 -3.22549
thorax 11.2845 2.81328 -3.43329
lowerneck -3.17988 1.35095 8.99493
upperneck 21.168 2.81569 -2.56061
head 7.14973 2.35264 -2.0807
rclavicle 2.5842e-015 5.08889e-014
rhumerus -278.59 14.7659 233.539
rradius 9.81836
rwrist 72.7961
rhand -23.9143 11.5315
rfingers 7.12502
rthumb 2.56009 -18.4329
lclavicle 2.5842e-015 5.08889e-014
lhumerus 65.7529 -15.2204 92.0705
lradius 42.1618
lwrist 46.0886
lhand -51.201 -1.8546
lfingers 7.12502
lthumb -23.7414 26.6989
rfemur 0.771956 5.78141 4.06798
rtibia 34.479
rfoot 11.3831 17.1345
rtoes -21.1154
lfemur -10.2273 7.71121 -12.3537
ltibia 28.2974
lfoot -10.6372 -14.8926
ltoes -2.42456
225
root -0.104042 19.2992 -0.621763 -179.106 27.5784 183.374
lowerback -10.2104 3.6409 1.73346
upperback 4.66256 5.11206 -3.2036
thorax 11.2573 2.77578 -3.41383
lowerneck -3.15779 1.31973 8.85965
upperneck 21.3651 2.8156 -2.551
head 7.20708 2.35728 -2.05444
rclavicle -6.48038e-014 5.08889e-014
rhumerus -278.689 14.8132 233.525
rradius 9.82855
rwrist 72.7381
rhand -24.0432 11.5821
rfingers 7.12502
rthumb 2.43568 -18.3837
lclavicle -6.48038e-014 5.08889e-014
lhumerus 65.7258 -15.192 92.0969
lradius 42.2345
lwrist 46.1364
lhand -51.1959 -1.74802
lfingers 7.12502
lthumb -23.7365 26.8061
rfemur 0.75523 5.84058 4.07226
rtibia 34.5095
rfoot 11.4194 17.2367
rtoes -21.448
lfemur -10.2719 7.96664 -12.3352
ltibia 28.3
lfoot -10.5631 -15.2693
ltoes -2.52783
226
root -0.107592 19.2997 -0.610393 -179.142 27.4825 183.342
lowerback -10.1646 3.58488 1.71047
upperback 4.70131 5.04377 -3.2058
thorax 11.2655 2.74335 -3.41915
lowerneck -3.1688 1.30447 8.76482
upperneck 21.5185 2.81943 -2.52961
head 7.25725 2.36345 -2.0306
rclavicle -2.48481e-014 4.92986e-014
rhumerus -278.741 14.9026 233.486
rradius 9.83548
rwrist 72.6974
rhand -24.1768 11.6517
rfingers 7.12502
rthumb 2.3066 -18.3155
lclavicle -2.48481e-014 4.92986e-014
lhumerus 65.7361 -15.1768 92.0621
lradius 42.3231
lwrist 46.156
lhand -51.1986 -1.59132
lfingers 7.12502
lthumb -23.7391 26.9625
rfemur 0.7334 5.92562 4.06477
rtibia 34.5412
rfoot 11.4846 17.3042
rtoes -21.5965
lfemur -10.3113 8.23572 -12.3309
ltibia 28.2947
lfoot -10.4688 -15.6593
ltoes -2.47005
227
root -0.111839 19.3002 -0.597714 -179.159 27.3683 183.336
lowerback -10.1117 3.52795 1.70851
upperback 4.73102 4.96796 -3.19307
thorax 11.2591 2.7074 -3.42217
lowerneck -3.13909 1.2781 8.64849
upperneck 21.652 2.81349 -2.50257
head 7.29266 2.3639 -2.00242
rclavicle -4.77083e-015 1.43125e-014
rhumerus -278.789 14.9818 233.464
rradius 9.82572
rwrist 72.6209
rhand -24.3018 11.7211
rfingers 7.12502
rthumb 2.18586 -18.2474
lclavicle -4.77083e-015 1.43125e-014
lhumerus 65.7247 -15.1595 92.0207
lradius 42.4518
lwrist 46.2443
lhand -51.1882 -1.49752
lfingers 7.12502
lthumb -23.7291 27.0575
rfemur 0.702174 5.99939 4.08741
rtibia 34.5798
rfoot 11.5185 17.3907
rtoes -21.844
lfemur -10.3731 8.50116 -12.2988
ltibia 28.2925
lfoot -10.3571 -16.0615
ltoes -2.48371
228
root -0.115272 19.301 -0.583552 -179.203 27.2505 183.319
lowerback -10.0346 3.46748 1.67939
upperback 4.77631 4.89208 -3.17382
thorax 11.2524 2.66977 -3.40363
lowerneck -3.14462 1.25733 8.49788
upperneck 21.7782 2.80863 -2.46226
head 7.33135 2.36121 -1.9638
rclavicle 1.53064e-014 1.59028e-015
rhumerus -278.821 15.0774 233.456
rradius 9.81141
rwrist 72.5472
rhand -24.426 11.882
rfingers 7.12502
rthumb 2.06597 -18.0877
lclavicle 1.53064e-014 1.59028e-015
lhumerus 65.7189 -15.1481 91.9869
lradius 42.5827
lwrist 46.2982
lhand -51.1912 -1.4576
lfingers 7.12502
lthumb -23.7319 27.0971
rfemur 0.692145 6.11662 4.11851
rtibia 34.6197
rfoot 11.5662 17.456
rtoes -22.0102
lfemur -10.4055 8.70234 -12.2751
ltibia 28.2856
lfoot -10.2822 -16.4227
ltoes -2.57194
229
root -0.119013 19.3009 -0.568452 -179.249 27.1321 183.312
lowerback -9.9349 3.41737 1.68448
upperback 4.81434 4.82701 -3.16988
thorax 11.2298 2.64068 -3.41988
lowerneck -3.07435 1.2271 8.40521
upperneck 21.8344 2.79445 -2.45273
head 7.33439 2.35423 -1.9466
rclavicle 8.22969e-014 4.13472e-014
rhumerus -278.837 15.1521 233.436
rradius 9.79556
rwrist 72.5139
rhand -24.526 12.0269
rfingers 7.12502
rthumb 1.96935 -17.9438
lclavicle 8.22969e-014 4.13472e-014
lhumerus 65.6775 -15.1676 91.9596
lradius 42.7455
lwrist 46.3095
lhand -51.1478 -1.30859
lfingers 7.12502
lthumb -23.6904 27.2515
rfemur 0.687327 6.215 4.15402
rtibia 34.6646
rfoot 11.5867 17.5268
rtoes -22.2325
lfemur -10.4466 8.97683 -12.2386
ltibia 28.283
lfoot -10.1716 -16.8291
ltoes -2.74189
